#!OML:ASF F:\VICON\USERDATA\INSTALL\Justin_Nancy\Justin_Nancy.ASF
:FULLY-SPECIFIED
:DEGREES
127
root 8.64255 17.3863 -10.482 0.0174356 -4.15711 6.78209
lowerback 6.48002 -1.38248 -6.25751
upperback 0.737911 -2.23819 1.621
thorax -2.56468 -1.04822 5.39539
lowerneck -17.65 -4.01018 -9.92274
upperneck 20.4486 -4.08833 5.41687
head 9.72214 -2.0703 2.98034
rclavicle 5.2181e-014 -1.59028e-014
rhumerus -36.1599 -21.7934 -73.0888
rradius 26.1173
rwrist 10.982
rhand -13.4224 13.9633
rfingers 7.12502
rthumb 12.686 -15.6314
lclavicle 5.2181e-014 -1.59028e-014
lhumerus -21.5536 6.2599 83.1672
lradius 29.8764
lwrist -7.03913
lhand -15.3709 26.3143
lfingers 7.12502
lthumb 10.807 56.0162
rfemur -25.838 0.557338 14.3344
rtibia 11.6502
rfoot -2.4241 -21.0353
rtoes -3.31667
lfemur 5.08873 0.910468 -27.0386
ltibia 18.2005
lfoot -15.623 5.2107
ltoes -11.8325
128
root 8.60349 17.3975 -10.3461 0.0841434 -4.27378 6.91342
lowerback 6.42716 -1.44738 -6.25745
upperback 0.673501 -2.32429 1.56925
thorax -2.59241 -1.08854 5.34691
lowerneck -17.6888 -3.96853 -9.92492
upperneck 20.6052 -4.02046 5.37382
head 9.77808 -2.04571 2.97662
rclavicle 1.56046e-014 5.56597e-015
rhumerus -36.2389 -21.838 -73.046
rradius 26.0316
rwrist 11.2234
rhand -13.3431 13.4321
rfingers 7.12502
rthumb 12.7625 -16.1578
lclavicle 1.56046e-014 5.56597e-015
lhumerus -21.4557 6.03122 83.0856
lradius 29.8797
lwrist -7.02962
lhand -15.2979 26.2673
lfingers 7.12502
lthumb 10.8774 55.9655
rfemur -25.6067 0.351677 14.3506
rtibia 11.2156
rfoot -3.44078 -21.4921
rtoes -1.24825
lfemur 5.63772 0.435199 -27.137
ltibia 17.8734
lfoot -15.2787 5.3573
ltoes -11.3532
129
root 8.55601 17.3921 -10.2048 0.0763231 -4.47563 7.06217
lowerback 6.49081 -1.48017 -6.39936
upperback 0.550268 -2.38555 1.55909
thorax -2.74272 -1.10851 5.42708
lowerneck -17.4953 -3.96873 -9.96166
upperneck 20.6473 -4.0135 5.29165
head 9.75616 -2.05842 2.95648
rclavicle 7.95139e-015 -1.59028e-015
rhumerus -36.4595 -21.864 -72.8462
rradius 25.9017
rwrist 11.625
rhand -13.1943 13.0135
rfingers 7.12502
rthumb 12.9059 -16.5674
lclavicle 7.95139e-015 -1.59028e-015
lhumerus -21.5064 6.00938 83.0168
lradius 29.8455
lwrist -7.2067
lhand -15.404 26.6159
lfingers 7.12502
lthumb 10.7751 56.3196
rfemur -25.4739 0.0102422 14.5014
rtibia 11.1234
rfoot -4.418 -21.8546
rtoes 1.95903
lfemur 6.11399 0.587537 -27.0793
ltibia 17.8066
lfoot -15.1474 4.99521
ltoes -11.1009
130
root 8.51085 17.3697 -10.0628 0.0267643 -4.93315 7.1537
lowerback 6.36086 -1.43335 -6.50429
upperback 0.530328 -2.32187 1.58935
thorax -2.6942 -1.07685 5.5089
lowerneck -17.1947 -3.9702 -10.0544
upperneck 20.6098 -4.01025 5.24304
head 9.68867 -2.07378 2.95699
rclavicle -2.49475e-014 7.95139e-016
rhumerus -36.6215 -21.74 -72.6896
rradius 25.8945
rwrist 11.7004
rhand -13.0075 13.0327
rfingers 7.12502
rthumb 13.0859 -16.5368
lclavicle -2.49475e-014 7.95139e-016
lhumerus -21.612 6.26199 82.9656
lradius 30.0099
lwrist -7.49474
lhand -15.3877 26.1762
lfingers 7.12502
lthumb 10.7908 55.879
rfemur -25.6388 -0.63626 14.9796
rtibia 11.6145
rfoot -3.76139 -21.5281
rtoes 0.776287
lfemur 6.67168 0.89866 -27.0011
ltibia 17.9003
lfoot -15.1524 4.97143
ltoes -14.4534
131
root 8.46765 17.3596 -9.92273 0.033094 -5.43867 7.21637
lowerback 6.23309 -1.39139 -6.5589
upperback 0.496715 -2.26089 1.63604
thorax -2.6623 -1.046 5.58031
lowerneck -17.0262 -3.93665 -10.1178
upperneck 20.6399 -3.95321 5.18988
head 9.66398 -2.06145 2.95831
rclavicle -7.45443e-015 3.02153e-014
rhumerus -36.6055 -21.59 -72.6931
rradius 25.828
rwrist 11.5184
rhand -13.2558 12.8003
rfingers 7.12502
rthumb 12.8466 -16.7843
lclavicle -7.45443e-015 3.02153e-014
lhumerus -21.7091 6.62674 82.9313
lradius 30.0697
lwrist -7.67074
lhand -15.9701 24.3857
lfingers 7.12502
lthumb 10.229 54.1169
rfemur -25.9464 -1.76092 15.7044
rtibia 12.3549
rfoot -1.71948 -20.4143
rtoes -2.73869
lfemur 7.10902 1.04948 -26.9587
ltibia 18.2229
lfoot -15.1394 5.12774
ltoes -17.6823
